<svg xmlns="http://www.w3.org/2000/svg" width="375" viewBox="0 0 375 375" height="375" version="1.0"><defs><clipPath id="a"><path d="M 43 56.0625 L 335 56.0625 L 335 312 L 43 312 Z M 43 56.0625"/></clipPath></defs><path fill="#D6E5E5" d="M 289.078125 218.496094 C 276.972656 198.898438 260.476562 182.820312 245.613281 165.421875 C 229.996094 147.140625 216.949219 126.101562 197.566406 111.402344 C 189.539062 105.308594 178.8125 99.34375 168.339844 101.792969 C 153.914062 105.183594 145.132812 119.066406 138.355469 131.1875 C 128.949219 147.832031 121.734375 165.609375 113.015625 182.566406 C 103.984375 200.09375 95.265625 217.929688 88.429688 236.460938 C 88.117188 237.277344 87.613281 237.84375 87.050781 238.09375 C 83.289062 245.570312 79.398438 254.425781 82.03125 262.277344 C 84.226562 268.808594 90.5 272.703125 97.023438 274.777344 C 105.867188 277.601562 115.277344 278.417969 124.558594 278.605469 C 145.257812 278.921875 165.453125 275.089844 186.027344 274.148438 C 204.152344 273.332031 222.40625 274.210938 240.53125 275.339844 C 254.519531 276.21875 270.324219 277.414062 283.371094 271.320312 C 292.527344 267.050781 299.742188 258.195312 299.554688 247.703125 C 299.300781 237.214844 294.472656 227.226562 289.078125 218.496094 Z M 200.074219 251.660156 C 194.429688 265.417969 167.648438 266.734375 169.40625 248.394531 C 169.46875 247.390625 169.90625 246.699219 170.472656 246.257812 C 170.722656 243.496094 171.285156 240.730469 172.601562 238.34375 C 175.363281 233.382812 180.128906 230.996094 185.773438 231.371094 C 190.980469 231.6875 196.75 233.949219 199.511719 238.597656 C 201.582031 242.363281 201.644531 247.703125 200.074219 251.660156 Z M 201.582031 157.253906 C 201.394531 165.984375 200.765625 174.71875 200.703125 183.449219 C 200.640625 190.417969 201.394531 197.390625 200.578125 204.300781 C 199.886719 210.582031 197.691406 218.8125 191.859375 222.453125 C 186.214844 225.972656 180.191406 224.339844 173.921875 224.210938 C 172.855469 224.210938 172.039062 223.773438 171.410156 223.144531 C 169.84375 223.082031 168.402344 222.078125 168.339844 220.066406 C 167.273438 193.308594 162.253906 166.488281 154.414062 140.863281 C 153.847656 139.101562 154.664062 137.65625 155.917969 136.902344 C 155.042969 135.460938 154.980469 133.449219 156.734375 132.128906 C 161.4375 128.488281 168.214844 128.300781 173.921875 128.363281 C 177.183594 128.425781 180.382812 128.613281 183.640625 128.675781 C 186.527344 128.738281 189.351562 128.675781 192.171875 129.492188 C 203.902344 133.011719 201.707031 147.769531 201.582031 157.253906 Z M 201.582031 157.253906"/><path fill="#FEBF10" d="M 194.617188 160.144531 C 194.746094 154.617188 195.183594 148.839844 194.617188 143.3125 C 194.304688 139.792969 193.300781 136.714844 189.414062 136.023438 C 184.644531 135.144531 179.253906 135.335938 174.359375 135.335938 C 169.90625 135.335938 164.324219 135.082031 160.5625 137.910156 C 160.6875 138.160156 160.8125 138.410156 160.875 138.664062 C 168.652344 164.164062 173.796875 190.859375 175.050781 217.492188 C 179.753906 217.929688 186.214844 219.4375 189.226562 215.542969 C 192.800781 210.894531 193.804688 205.117188 193.929688 199.339844 C 193.992188 193.496094 193.617188 187.65625 193.742188 181.75 C 193.992188 174.527344 194.429688 167.367188 194.617188 160.144531 Z M 193.550781 242.300781 C 192.234375 239.414062 187.90625 238.34375 185.085938 238.21875 C 177.121094 237.71875 177.058594 246.824219 177.058594 252.601562 C 177.058594 252.917969 176.992188 253.167969 176.929688 253.484375 C 180.191406 257.691406 191.042969 254.613281 193.363281 249.589844 C 194.429688 247.328125 194.617188 244.5 193.550781 242.300781 Z M 193.550781 242.300781"/><path fill="#FEBF10" d="M 306.265625 200.28125 C 296.292969 186.023438 284.5625 173.148438 273.398438 159.769531 C 262.546875 146.765625 253.074219 132.882812 243.355469 119.003906 C 233.820312 105.308594 223.847656 91.617188 211.113281 80.6875 C 202.082031 72.898438 191.230469 65.863281 179.1875 64.105469 C 160.246094 61.34375 145.445312 74.53125 135.03125 88.851562 C 122.300781 106.378906 113.707031 126.730469 104.925781 146.390625 C 101.039062 155.058594 97.273438 163.851562 92.757812 172.265625 C 88.367188 180.433594 83.476562 188.347656 78.707031 196.324219 C 72.6875 206.5 66.792969 216.738281 61.773438 227.414062 C 57.007812 237.652344 52.679688 248.394531 51.046875 259.699219 C 49.730469 268.808594 50.359375 278.671875 56.066406 286.269531 C 64.03125 296.886719 78.144531 300.152344 90.5 302.222656 C 90.625 302.222656 90.75 302.289062 90.9375 302.289062 C 94.136719 302.414062 97.335938 302.476562 100.472656 302.539062 C 141.554688 303.292969 182.765625 300.527344 223.847656 303.039062 C 241.535156 304.109375 259.285156 306.433594 276.972656 303.984375 C 292.714844 301.785156 309.210938 295.566406 318.871094 282.25 C 337.5 256.558594 322.132812 222.957031 306.265625 200.28125 Z M 303.003906 261.835938 C 288.953125 288.28125 253.640625 282.691406 228.992188 281.558594 C 209.171875 280.679688 189.226562 279.925781 169.53125 282.4375 C 161.753906 283.445312 153.914062 284.261719 146.007812 284.824219 C 136.097656 285.515625 126.1875 285.769531 116.277344 285.140625 C 107.308594 284.511719 97.902344 283.191406 89.683594 279.359375 C 82.722656 276.09375 76.765625 270.691406 74.945312 262.96875 C 72.3125 251.597656 78.082031 240.417969 83.035156 230.554688 C 83.160156 230.367188 83.222656 230.179688 83.351562 230.054688 C 89.683594 213.472656 97.460938 197.328125 105.617188 181.5625 C 114.082031 165.230469 121.046875 148.210938 129.828125 132.066406 C 137.039062 118.878906 145.570312 103.992188 159.808594 97.394531 C 170.03125 92.683594 181.382812 94.128906 191.167969 99.21875 C 202.332031 105.058594 211.679688 113.976562 220.019531 123.273438 C 228.613281 132.820312 236.390625 142.933594 244.292969 153.046875 C 257.71875 170.070312 273.460938 185.082031 286.445312 202.542969 C 298.046875 218.058594 313.601562 241.988281 303.003906 261.835938 Z M 303.003906 261.835938"/><g clip-path="url(#a)"><path d="M 325.832031 220.507812 C 311.722656 188.722656 284.8125 165.167969 264.679688 137.40625 C 245.800781 111.464844 229.242188 81.191406 200.640625 64.671875 C 191.671875 59.457031 181.320312 56.191406 170.847656 56.882812 C 161.878906 57.449219 153.410156 61.34375 146.324219 66.804688 C 129.828125 79.496094 119.351562 99.28125 110.445312 117.683594 C 101.726562 135.710938 94.765625 154.679688 84.917969 172.140625 C 74.253906 190.984375 62.273438 209.074219 53.496094 228.921875 C 45.464844 247.140625 37.5 271.574219 50.042969 289.597656 C 58.011719 301.03125 71.996094 305.679688 85.167969 308.191406 C 85.734375 308.632812 86.421875 308.945312 87.300781 309.007812 C 128.574219 310.640625 169.90625 307.816406 211.175781 309.320312 C 245.109375 310.515625 284.5 319.183594 313.917969 296.949219 C 324.957031 288.59375 331.855469 276.09375 333.609375 262.402344 C 335.679688 247.765625 331.667969 233.761719 325.832031 220.507812 Z M 318.933594 282.1875 C 309.273438 295.503906 292.777344 301.722656 277.035156 303.921875 C 259.347656 306.371094 241.597656 304.109375 223.910156 302.976562 C 182.828125 300.464844 141.679688 303.230469 100.535156 302.476562 C 97.335938 302.414062 94.136719 302.351562 91.003906 302.222656 C 90.875 302.160156 90.75 302.160156 90.5625 302.160156 C 78.207031 300.089844 64.09375 296.761719 56.128906 286.207031 C 50.421875 278.605469 49.792969 268.746094 51.109375 259.636719 C 52.742188 248.394531 57.007812 237.589844 61.835938 227.351562 C 66.855469 216.675781 72.75 206.375 78.769531 196.261719 C 83.476562 188.285156 88.429688 180.433594 92.820312 172.203125 C 97.335938 163.789062 101.101562 155.058594 104.988281 146.324219 C 113.769531 126.601562 122.363281 106.316406 135.09375 88.789062 C 145.507812 74.46875 160.308594 61.277344 179.253906 64.042969 C 191.292969 65.800781 202.144531 72.835938 211.175781 80.625 C 223.910156 91.554688 233.882812 105.246094 243.417969 118.941406 C 253.140625 132.820312 262.609375 146.703125 273.460938 159.703125 C 284.5625 173.082031 296.292969 185.960938 306.328125 200.21875 C 322.132812 222.957031 337.5 256.558594 318.933594 282.1875 Z M 318.933594 282.1875"/></g><path d="M 286.507812 202.480469 C 273.585938 185.019531 257.78125 170.007812 244.359375 152.984375 C 236.453125 142.933594 228.613281 132.757812 220.085938 123.210938 C 211.742188 113.914062 202.398438 104.996094 191.230469 99.15625 C 181.449219 94.066406 170.09375 92.621094 159.871094 97.332031 C 145.632812 103.929688 137.101562 118.816406 129.890625 132.003906 C 121.109375 148.148438 114.144531 165.167969 105.679688 181.5 C 97.523438 197.265625 89.746094 213.410156 83.414062 229.992188 C 83.289062 230.179688 83.160156 230.304688 83.097656 230.492188 C 78.144531 240.292969 72.375 251.535156 75.007812 262.90625 C 76.765625 270.628906 82.785156 276.03125 89.746094 279.296875 C 97.964844 283.191406 107.371094 284.511719 116.339844 285.078125 C 126.25 285.769531 136.160156 285.453125 146.070312 284.761719 C 153.914062 284.199219 161.753906 283.382812 169.59375 282.375 C 189.289062 279.863281 209.234375 280.617188 229.054688 281.496094 C 253.703125 282.628906 289.015625 288.21875 303.066406 261.773438 C 313.601562 241.988281 298.046875 218.058594 286.507812 202.480469 Z M 283.246094 271.382812 C 270.199219 277.476562 254.394531 276.285156 240.40625 275.402344 C 222.28125 274.273438 204.089844 273.394531 185.902344 274.210938 C 165.328125 275.152344 145.132812 278.984375 124.433594 278.671875 C 115.210938 278.542969 105.742188 277.664062 96.898438 274.839844 C 90.375 272.765625 84.101562 268.871094 81.90625 262.339844 C 79.273438 254.425781 83.160156 245.570312 86.925781 238.15625 C 87.488281 237.84375 87.992188 237.339844 88.304688 236.523438 C 95.140625 217.992188 103.859375 200.15625 112.890625 182.632812 C 121.609375 165.609375 128.824219 147.894531 138.230469 131.25 C 145.070312 119.191406 153.785156 105.246094 168.214844 101.855469 C 178.6875 99.40625 189.414062 105.371094 197.441406 111.464844 C 216.824219 126.164062 229.867188 147.207031 245.488281 165.484375 C 260.414062 182.882812 276.847656 198.960938 288.953125 218.558594 C 294.410156 227.351562 299.238281 237.339844 299.363281 247.828125 C 299.617188 258.195312 292.402344 267.050781 283.246094 271.382812 Z M 283.246094 271.382812"/><path d="M 192.171875 129.554688 C 189.414062 128.738281 186.527344 128.800781 183.644531 128.738281 C 180.382812 128.675781 177.183594 128.425781 173.921875 128.425781 C 168.214844 128.363281 161.4375 128.550781 156.734375 132.195312 C 155.042969 133.511719 155.042969 135.523438 155.917969 136.96875 C 154.726562 137.722656 153.914062 139.164062 154.414062 140.925781 C 162.253906 166.550781 167.273438 193.371094 168.339844 220.128906 C 168.402344 222.140625 169.90625 223.144531 171.410156 223.207031 C 172.039062 223.835938 172.855469 224.210938 173.921875 224.273438 C 180.191406 224.402344 186.152344 226.035156 191.859375 222.515625 C 197.628906 218.9375 199.886719 210.707031 200.578125 204.363281 C 201.332031 197.453125 200.640625 190.417969 200.703125 183.511719 C 200.765625 174.78125 201.457031 166.050781 201.582031 157.316406 C 201.707031 147.769531 203.902344 133.011719 192.171875 129.554688 Z M 194.617188 160.144531 C 194.429688 167.367188 193.992188 174.527344 193.804688 181.75 C 193.679688 187.59375 194.054688 193.433594 193.992188 199.339844 C 193.929688 205.117188 192.925781 210.894531 189.289062 215.542969 C 186.277344 219.4375 179.816406 217.929688 175.113281 217.492188 C 173.859375 190.859375 168.714844 164.164062 160.9375 138.664062 C 160.875 138.410156 160.75 138.160156 160.625 137.910156 C 164.386719 135.082031 169.96875 135.335938 174.421875 135.335938 C 179.316406 135.335938 184.644531 135.144531 189.476562 136.023438 C 193.300781 136.714844 194.304688 139.855469 194.683594 143.3125 C 195.183594 148.839844 194.746094 154.617188 194.617188 160.144531 Z M 199.449219 238.597656 C 196.6875 233.886719 190.917969 231.6875 185.710938 231.371094 C 180.066406 231.058594 175.300781 233.382812 172.539062 238.34375 C 171.222656 240.730469 170.660156 243.496094 170.410156 246.257812 C 169.84375 246.699219 169.46875 247.390625 169.34375 248.394531 C 167.585938 266.734375 194.429688 265.417969 200.011719 251.660156 C 201.644531 247.703125 201.582031 242.363281 199.449219 238.597656 Z M 193.488281 249.460938 C 191.167969 254.488281 180.316406 257.566406 177.058594 253.355469 C 177.121094 253.105469 177.183594 252.792969 177.183594 252.476562 C 177.183594 246.699219 177.183594 237.652344 185.210938 238.09375 C 188.03125 238.28125 192.359375 239.351562 193.679688 242.175781 C 194.617188 244.5 194.429688 247.328125 193.488281 249.460938 Z M 193.488281 249.460938"/></svg>