<svg xmlns="http://www.w3.org/2000/svg" width="375" viewBox="0 0 375 375" height="375" version="1.0"><defs><clipPath id="a"><path d="M 41 299 L 333 299 L 333 344.25 L 41 344.25 Z M 41 299"/></clipPath><clipPath id="b"><path d="M 40.78125 152 L 95 152 L 95 189 L 40.78125 189 Z M 40.78125 152"/></clipPath><clipPath id="c"><path d="M 40.78125 152 L 88 152 L 88 180 L 40.78125 180 Z M 40.78125 152"/></clipPath><clipPath id="d"><path d="M 113 37.5 L 139 37.5 L 139 69 L 113 69 Z M 113 37.5"/></clipPath><clipPath id="e"><path d="M 142 37.5 L 169 37.5 L 169 68 L 142 68 Z M 142 37.5"/></clipPath><clipPath id="f"><path d="M 174 37.5 L 203 37.5 L 203 68 L 174 68 Z M 174 37.5"/></clipPath><clipPath id="g"><path d="M 206 37.5 L 230 37.5 L 230 68 L 206 68 Z M 206 37.5"/></clipPath><clipPath id="h"><path d="M 233 37.5 L 262 37.5 L 262 68 L 233 68 Z M 233 37.5"/></clipPath></defs><g clip-path="url(#a)"><path fill="#598A91" d="M 187.132812 344.203125 C 106.960938 344.203125 41.972656 332.136719 41.972656 317.257812 C 41.972656 311.414062 51.988281 306.003906 69.007812 301.589844 L 69.007812 309.167969 C 69.007812 310.800781 70.335938 312.128906 71.96875 312.128906 L 86.730469 312.128906 L 86.730469 318.050781 C 86.730469 319.6875 88.050781 321.011719 89.6875 321.011719 L 118.0625 321.011719 C 119.699219 321.011719 121.023438 319.6875 121.023438 318.050781 L 121.023438 312.128906 L 244.96875 312.128906 L 244.96875 318.050781 C 244.96875 319.6875 246.296875 321.011719 247.929688 321.011719 L 276.304688 321.011719 C 277.9375 321.011719 279.265625 319.6875 279.265625 318.050781 L 279.265625 312.128906 L 294.027344 312.128906 C 295.660156 312.128906 296.984375 310.800781 296.984375 309.167969 L 296.984375 299.636719 C 318.988281 304.363281 332.292969 310.519531 332.292969 317.257812 C 332.292969 332.136719 267.300781 344.203125 187.132812 344.203125"/></g><path fill="#B8CBD1" d="M 127.679688 116.039062 C 127.679688 118.011719 126.078125 119.613281 124.105469 119.613281 L 102.210938 119.613281 C 100.230469 119.613281 98.632812 118.011719 98.632812 116.039062 L 98.632812 113.648438 C 98.632812 111.675781 100.230469 110.074219 102.210938 110.074219 L 124.105469 110.074219 C 126.078125 110.074219 127.679688 111.675781 127.679688 113.648438 L 127.679688 116.039062"/><path fill="#283236" d="M 124.261719 113.953125 L 102.046875 113.953125 L 102.046875 111.582031 L 124.261719 111.582031 L 124.261719 113.953125"/><path fill="#B8CBD1" d="M 267.328125 116.039062 C 267.328125 118.011719 265.730469 119.613281 263.753906 119.613281 L 241.859375 119.613281 C 239.882812 119.613281 238.28125 118.011719 238.28125 116.039062 L 238.28125 113.648438 C 238.28125 111.675781 239.882812 110.074219 241.859375 110.074219 L 263.753906 110.074219 C 265.730469 110.074219 267.328125 111.675781 267.328125 113.648438 L 267.328125 116.039062"/><path fill="#283236" d="M 263.910156 113.953125 L 241.695312 113.953125 L 241.695312 111.582031 L 263.910156 111.582031 L 263.910156 113.953125"/><path fill="#46545C" d="M 282.386719 204.914062 C 282.386719 207.855469 280 210.238281 277.066406 210.238281 L 88.929688 210.238281 C 85.988281 210.238281 83.609375 207.855469 83.609375 204.914062 L 74.203125 120.632812 C 74.203125 117.691406 76.8125 115.308594 80.03125 115.308594 L 285.964844 115.308594 C 289.179688 115.308594 291.789062 117.691406 291.789062 120.632812 L 282.386719 204.914062"/><path fill="#748B93" d="M 291.179688 118.269531 C 290.226562 116.511719 288.25 115.308594 285.964844 115.308594 L 80.03125 115.308594 C 77.742188 115.308594 75.769531 116.511719 74.816406 118.269531 L 291.179688 118.269531"/><path fill="#283236" d="M 274.878906 205.316406 C 274.878906 208.035156 272.675781 210.238281 269.957031 210.238281 L 96.039062 210.238281 C 93.320312 210.238281 91.113281 208.035156 91.113281 205.316406 L 82.425781 126.480469 C 82.425781 123.761719 84.832031 121.558594 87.808594 121.558594 L 278.183594 121.558594 C 281.15625 121.558594 283.570312 123.761719 283.570312 126.480469 L 274.878906 205.316406"/><path fill="#424F56" d="M 294.214844 212.640625 C 295.738281 214.375 296.984375 217.683594 296.984375 219.992188 L 296.984375 235.578125 C 296.984375 237.886719 295.101562 239.703125 292.792969 239.617188 L 73.199219 231.539062 C 70.894531 231.453125 69.007812 229.496094 69.007812 227.1875 L 69.007812 219.992188 C 69.007812 217.683594 70.257812 214.375 71.78125 212.640625 L 78.859375 204.59375 C 80.382812 202.859375 83.519531 201.441406 85.828125 201.441406 L 280.164062 201.441406 C 282.476562 201.441406 285.613281 202.859375 287.136719 204.59375 L 294.214844 212.640625"/><path fill="#283136" d="M 286.546875 214.5 C 287.96875 216.113281 289.125 219.195312 289.125 221.34375 L 289.125 235.855469 C 289.125 238.003906 287.371094 239.699219 285.222656 239.621094 L 80.769531 232.101562 C 78.625 232.019531 76.863281 230.195312 76.863281 228.042969 L 76.863281 221.34375 C 76.863281 219.195312 78.027344 216.113281 79.445312 214.5 L 86.039062 207.007812 C 87.457031 205.394531 90.378906 204.074219 92.527344 204.074219 L 273.46875 204.074219 C 275.617188 204.074219 278.535156 205.394531 279.957031 207.007812 L 286.546875 214.5"/><path fill="#343F46" d="M 271.738281 129.980469 C 271.738281 129.980469 96.46875 128.664062 91.945312 143.800781 C 91.945312 143.800781 98.441406 176.378906 102.820312 180.65625 C 107.199219 184.933594 264.347656 199.742188 268.015625 194.480469 C 271.683594 189.214844 271.738281 129.980469 271.738281 129.980469"/><path fill="#B9272C" d="M 298.699219 128.515625 L 299.214844 129.492188 L 300.753906 128.722656 C 303.359375 127.429688 306.523438 128.488281 307.824219 131.09375 L 319.933594 155.421875 C 321.234375 158.027344 320.171875 161.191406 317.566406 162.492188 L 316.925781 162.8125 L 318.902344 166.53125 L 329.105469 158.121094 L 310.214844 120.804688 L 298.699219 128.515625"/><path fill="#E43839" d="M 312.480469 131.039062 L 323.640625 153.457031 C 324.835938 155.859375 323.859375 158.777344 321.457031 159.972656 L 316.109375 162.636719 C 313.707031 163.835938 310.792969 162.855469 309.59375 160.453125 L 298.433594 138.039062 C 297.234375 135.636719 298.210938 132.722656 300.613281 131.527344 L 305.964844 128.859375 C 308.367188 127.660156 311.285156 128.640625 312.480469 131.039062 Z M 310.738281 115.320312 L 279.328125 144.796875 C 277.683594 146.339844 277.480469 149.050781 278.878906 150.824219 L 299.230469 176.597656 C 300.625 178.371094 303.28125 178.765625 305.136719 177.476562 L 331.472656 159.136719 C 333.324219 157.847656 334.042969 155.125 333.074219 153.089844 L 315.492188 116.214844 C 314.523438 114.179688 312.382812 113.777344 310.738281 115.320312"/><path fill="#E24D54" d="M 303.5625 173.683594 L 282.570312 147.125 C 281.46875 145.734375 281.308594 143.792969 282.023438 142.265625 L 279.328125 144.796875 C 277.683594 146.339844 277.480469 149.050781 278.878906 150.824219 L 299.230469 176.597656 C 300.625 178.371094 303.28125 178.765625 305.136719 177.476562 L 308.375 175.21875 C 306.683594 175.714844 304.71875 175.148438 303.5625 173.683594"/><path fill="#E24D54" d="M 288.515625 143.886719 C 289.214844 144.738281 289.097656 145.988281 288.25 146.691406 C 287.398438 147.390625 286.148438 147.269531 285.449219 146.421875 C 284.75 145.574219 284.871094 144.320312 285.71875 143.621094 C 286.5625 142.921875 287.816406 143.042969 288.515625 143.886719"/><path fill="#E24D54" d="M 306.59375 168.308594 C 307.3125 169.175781 307.1875 170.457031 306.320312 171.171875 C 305.453125 171.886719 304.171875 171.761719 303.457031 170.894531 C 302.742188 170.03125 302.867188 168.746094 303.734375 168.027344 C 304.601562 167.320312 305.882812 167.441406 306.59375 168.308594"/><path fill="#B7BCC0" d="M 143.472656 262.5625 L 155.828125 274.792969 L 155.960938 274.695312 L 163.546875 276.058594 L 160.457031 271.453125 L 160.609375 271.347656 L 168.203125 272.71875 L 165.109375 268.101562 L 165.25 268 L 173.242188 269.835938 L 169.761719 264.746094 L 169.894531 264.652344 L 177.898438 266.492188 L 174.40625 261.398438 L 174.535156 261.304688 L 182.550781 263.152344 L 179.0625 258.046875 L 179.183594 257.957031 L 187.207031 259.8125 L 183.707031 254.691406 L 183.824219 254.609375 L 191.867188 256.464844 L 188.359375 251.339844 L 188.46875 251.261719 L 196.523438 253.121094 L 193.007812 247.988281 L 193.113281 247.917969 L 201.179688 249.78125 L 197.660156 244.636719 L 197.757812 244.570312 L 205.835938 246.4375 L 202.3125 241.285156 L 202.398438 241.21875 L 210.492188 243.09375 L 206.960938 237.933594 L 207.042969 237.871094 L 215.148438 239.753906 L 211.609375 234.585938 L 211.6875 234.527344 L 219.804688 236.410156 L 216.261719 231.230469 L 216.332031 231.179688 L 224.460938 233.066406 L 220.910156 227.878906 L 220.976562 227.832031 L 229.117188 229.726562 L 225.558594 224.523438 L 225.621094 224.480469 L 233.773438 226.382812 L 230.210938 221.171875 L 230.261719 221.136719 L 238.433594 223.039062 L 234.859375 217.824219 L 234.90625 217.789062 L 243.089844 219.695312 L 239.507812 214.46875 L 239.550781 214.441406 L 247.746094 216.351562 L 244.160156 211.121094 L 244.195312 211.09375 L 252.402344 213.011719 L 248.808594 207.769531 L 248.835938 207.746094 L 257.058594 209.667969 L 253.457031 204.417969 L 253.484375 204.398438 L 261.714844 206.324219 L 258.109375 201.066406 L 258.125 201.050781 L 266.371094 202.980469 L 262.757812 197.714844 L 262.769531 197.707031 L 271.027344 199.640625 L 267.410156 194.363281 L 267.410156 194.359375 L 275.683594 196.296875 L 272.171875 191.164062 L 280.339844 192.957031 L 276.820312 187.816406 L 284.996094 189.609375 L 281.394531 184.351562 L 289.65625 186.269531 L 286.132812 181.125 L 294.3125 182.929688 L 290.652344 177.667969 L 290.6875 177.640625 L 298.96875 179.582031 L 295.289062 174.265625 L 295.308594 174.25 L 292.496094 163.382812 L 280.851562 149.25 L 143.472656 262.5625"/><path fill="#D9DDE1" d="M 147.636719 266.683594 L 284.554688 153.746094 L 280.851562 149.25 L 143.472656 262.5625 L 147.636719 266.683594"/><path fill="#8D9BA6" d="M 160.394531 261.058594 C 161.507812 262.40625 161.316406 264.402344 159.964844 265.515625 C 158.621094 266.625 156.625 266.4375 155.511719 265.085938 C 154.402344 263.738281 154.59375 261.742188 155.941406 260.628906 C 157.289062 259.519531 159.285156 259.710938 160.394531 261.058594"/><path fill="#718590" d="M 275.894531 163.183594 C 276.472656 160.980469 278.339844 159.453125 280.472656 159.203125 L 281.941406 153.609375 C 280.207031 152.339844 279.324219 150.097656 279.902344 147.890625 C 280.480469 145.6875 282.347656 144.164062 284.484375 143.914062 L 286.6875 135.519531 L 281.898438 135.78125 L 271 154.230469 L 267.816406 174.710938 L 275.609375 177.5 L 277.929688 168.894531 C 276.191406 167.632812 275.316406 165.390625 275.894531 163.183594"/><path fill="#718590" d="M 285.277344 166.542969 C 286.230469 164.472656 285.75 162.109375 284.257812 160.5625 L 286.679688 155.304688 C 288.824219 155.429688 290.925781 154.25 291.878906 152.179688 C 292.832031 150.109375 292.351562 147.746094 290.859375 146.199219 L 294.488281 138.316406 L 298.015625 141.554688 L 294.738281 162.730469 L 284.207031 180.578125 L 276.410156 177.789062 L 280.078125 169.664062 C 282.222656 169.792969 284.324219 168.613281 285.277344 166.542969"/><path fill="#1B2429" d="M 248.832031 219.910156 C 250.574219 216.3125 252.5 212.601562 254.597656 208.800781 C 260.949219 197.300781 266.996094 188.421875 268.570312 186.152344 L 261.765625 182.609375 C 259.238281 186.335938 253.960938 194.367188 248.351562 204.515625 C 245.429688 209.804688 242.8125 214.953125 240.527344 219.910156 L 248.832031 219.910156"/><path fill="#2C3D44" d="M 242.519531 219.910156 C 244.710938 215.207031 247.199219 210.34375 249.957031 205.347656 C 255.566406 195.203125 260.84375 187.171875 263.371094 183.445312 L 261.765625 182.609375 C 259.238281 186.335938 253.960938 194.367188 248.351562 204.515625 C 245.429688 209.804688 242.8125 214.953125 240.527344 219.910156 L 242.519531 219.910156"/><path fill="#B7BCC0" d="M 267.957031 173.160156 L 274.273438 178.652344 L 267.78125 188.230469 L 261.464844 182.738281 L 267.957031 173.160156"/><path fill="#C8D3DB" d="M 269.273438 174.394531 L 274.238281 178.710938 L 274.273438 178.652344 L 267.957031 173.160156 L 261.464844 182.738281 L 262.816406 183.914062 L 269.273438 174.394531"/><path fill="#1B2429" d="M 279.578125 219.910156 C 279.835938 218.609375 280.089844 217.296875 280.335938 215.96875 C 282.4375 204.5625 283.460938 195.011719 283.867188 190.523438 L 276.363281 188.941406 C 276.136719 191.695312 275.175781 202.398438 272.789062 215.316406 C 272.503906 216.871094 272.203125 218.398438 271.898438 219.910156 L 279.578125 219.910156"/><path fill="#2C3D44" d="M 279.578125 219.910156 C 279.835938 218.609375 280.089844 217.296875 280.335938 215.96875 C 282.4375 204.5625 283.460938 195.011719 283.867188 190.523438 L 282.097656 190.148438 C 281.6875 194.636719 280.667969 204.191406 278.566406 215.59375 C 278.296875 217.054688 278.015625 218.484375 277.730469 219.910156 L 279.578125 219.910156"/><path fill="#B7BCC0" d="M 285.078125 179.289062 L 276.710938 179.523438 L 275.660156 191.050781 L 284.023438 190.816406 L 285.078125 179.289062"/><path fill="#C8D3DB" d="M 283.277344 179.410156 L 276.703125 179.589844 L 276.710938 179.523438 L 285.078125 179.289062 L 284.023438 190.816406 L 282.230469 190.867188 L 283.277344 179.410156"/><path fill="#B7BCC0" d="M 283.601562 179.738281 C 282.101562 183.933594 277.476562 186.121094 273.277344 184.617188 C 269.082031 183.113281 266.898438 178.492188 268.402344 174.292969 C 269.902344 170.09375 274.523438 167.90625 278.722656 169.414062 C 282.917969 170.914062 285.105469 175.535156 283.601562 179.738281"/><path fill="#8C9CA2" d="M 276 181.289062 C 275.523438 181.289062 275.039062 181.207031 274.558594 181.035156 C 272.339844 180.242188 271.183594 177.796875 271.980469 175.574219 C 272.605469 173.828125 274.25 172.742188 276 172.742188 C 276.480469 172.742188 276.964844 172.820312 277.441406 172.992188 C 279.664062 173.785156 280.820312 176.230469 280.023438 178.457031 C 279.398438 180.199219 277.753906 181.289062 276 181.289062"/><path fill="#566B75" d="M 222.910156 169.886719 C 224.59375 171.742188 227.148438 172.328125 229.382812 171.589844 C 227.738281 171.570312 226.101562 170.890625 224.910156 169.574219 L 216.617188 160.453125 C 216.074219 160.734375 215.546875 161.027344 215.15625 161.359375 L 222.910156 169.886719"/><path fill="#718590" d="M 221.203125 179.746094 C 221.796875 180.46875 222.53125 181.453125 223.148438 182.578125 C 224.207031 184.507812 224.773438 186.867188 224.996094 188.835938 L 224.996094 219.910156 L 233.199219 219.910156 L 233.199219 188.242188 C 233.460938 186.410156 234.015625 184.320312 234.96875 182.578125 C 236.253906 180.234375 238.046875 178.488281 238.046875 178.488281 L 237.777344 178.578125 C 238.019531 178.382812 238.257812 178.183594 238.488281 177.972656 C 244.488281 172.539062 244.945312 163.261719 239.507812 157.261719 C 235.542969 152.886719 229.542969 151.457031 224.253906 153.117188 L 231.785156 161.429688 C 234.054688 163.941406 233.867188 167.820312 231.355469 170.097656 C 228.84375 172.371094 224.960938 172.183594 222.683594 169.671875 L 215.15625 161.359375 C 212.988281 166.457031 213.820312 172.578125 217.785156 176.953125 C 218.804688 178.082031 219.957031 179.007812 221.203125 179.746094"/><path fill="#90A6AF" d="M 237.507812 157.574219 C 242.941406 163.574219 242.484375 172.847656 236.488281 178.285156 C 236.253906 178.492188 236.019531 178.691406 235.777344 178.882812 L 236.042969 178.792969 C 236.042969 178.792969 234.253906 180.542969 232.96875 182.890625 C 232.015625 184.632812 231.460938 186.714844 231.199219 188.554688 L 231.199219 219.910156 L 233.199219 219.910156 L 233.199219 188.242188 C 233.460938 186.410156 234.015625 184.320312 234.96875 182.578125 C 236.253906 180.234375 238.046875 178.488281 238.046875 178.488281 L 237.777344 178.578125 C 238.019531 178.382812 238.257812 178.183594 238.488281 177.972656 C 244.488281 172.539062 244.945312 163.261719 239.507812 157.261719 C 235.832031 153.203125 230.398438 151.683594 225.410156 152.808594 C 229.804688 152.441406 234.316406 154.050781 237.507812 157.574219"/><path fill="#C37431" d="M 102.273438 219.910156 C 87.957031 189.792969 71.273438 154.714844 71.273438 154.714844 L 63.324219 158.207031 L 88.269531 219.910156 L 102.273438 219.910156"/><path fill="#CC844B" d="M 90.429688 219.910156 L 65.097656 157.425781 L 63.324219 158.207031 L 88.269531 219.910156 L 90.429688 219.910156"/><g clip-path="url(#b)"><path fill="#161819" d="M 94.519531 170.671875 L 61.757812 185.070312 L 45.960938 188.28125 L 40.761719 176.445312 L 53.132812 167.277344 L 86.570312 152.578125 L 94.519531 170.671875"/></g><g clip-path="url(#c)"><path fill="#252A2D" d="M 53.132812 167.277344 L 40.761719 176.445312 L 41.902344 179.046875 L 54.277344 169.882812 L 87.714844 155.183594 L 86.570312 152.578125 L 53.132812 167.277344"/></g><path fill="#161819" d="M 136.257812 219.910156 L 136.257812 184.125 L 121.894531 184.125 L 121.894531 219.910156 L 136.257812 219.910156"/><path fill="#252A2D" d="M 123.988281 219.910156 L 123.988281 186.070312 L 136.257812 186.070312 L 136.257812 184.125 L 121.894531 184.125 L 121.894531 219.910156 L 123.988281 219.910156"/><path fill="#849AA2" d="M 134.902344 156.71875 C 134.902344 156.941406 134.726562 157.121094 134.503906 157.121094 L 120.703125 157.121094 C 120.484375 157.121094 120.304688 156.941406 120.304688 156.71875 L 120.304688 151.992188 C 120.304688 151.777344 120.484375 151.597656 120.703125 151.597656 L 134.503906 151.597656 C 134.726562 151.597656 134.902344 151.777344 134.902344 151.992188 L 134.902344 156.71875"/><path fill="#849AA2" d="M 95.933594 195.796875 C 95.933594 198.554688 98.171875 200.792969 100.929688 200.792969 C 103.691406 200.792969 105.925781 198.554688 105.925781 195.796875 L 105.925781 173.824219 L 95.933594 173.824219 L 95.933594 195.796875"/><path fill="#B2C7C7" d="M 97.859375 196.757812 L 97.859375 174.785156 L 105.925781 174.785156 L 105.925781 173.824219 L 95.933594 173.824219 L 95.933594 195.796875 C 95.933594 198.136719 97.542969 200.105469 99.722656 200.648438 C 98.585938 199.730469 97.859375 198.328125 97.859375 196.757812"/><path fill="#5C6F78" d="M 117.535156 173.824219 L 113.890625 173.824219 L 113.890625 160.441406 L 117.535156 160.441406 L 117.535156 173.824219"/><path fill="#849AA2" d="M 125.640625 129.792969 L 106.089844 129.792969 L 95.933594 137.75 L 95.933594 158.726562 L 105.492188 158.726562 L 105.492188 148.207031 L 134.40625 148.207031 C 134.683594 148.207031 134.902344 147.984375 134.902344 147.714844 L 134.902344 137.75 L 125.640625 129.792969"/><path fill="#B2C7C7" d="M 97.421875 138.84375 L 107.574219 130.886719 L 126.910156 130.886719 L 125.640625 129.792969 L 106.089844 129.792969 L 95.933594 137.75 L 95.933594 158.726562 L 97.421875 158.726562 L 97.421875 138.84375"/><path fill="#B9272C" d="M 127.800781 167.777344 C 127.800781 169.390625 126.488281 170.703125 124.875 170.703125 L 105.964844 170.703125 C 104.351562 170.703125 103.039062 169.390625 103.039062 167.777344 L 103.039062 164.179688 C 103.039062 162.566406 104.351562 161.257812 105.964844 161.257812 L 124.875 161.257812 C 126.488281 161.257812 127.800781 162.566406 127.800781 164.179688 Z M 136.746094 154.859375 L 95.578125 154.859375 C 95.304688 154.859375 95.082031 155.082031 95.082031 155.355469 L 95.082031 177.125 C 95.082031 177.394531 95.304688 177.621094 95.578125 177.621094 L 120.824219 177.621094 L 120.824219 190.628906 L 137.242188 190.628906 L 137.242188 155.355469 C 137.242188 155.082031 137.019531 154.859375 136.746094 154.859375"/><path fill="#E24D54" d="M 96.457031 156.4375 C 96.457031 156.164062 96.679688 155.941406 96.953125 155.941406 L 137.242188 155.941406 L 137.242188 155.355469 C 137.242188 155.082031 137.019531 154.859375 136.746094 154.859375 L 95.578125 154.859375 C 95.304688 154.859375 95.082031 155.082031 95.082031 155.355469 L 95.082031 177.125 C 95.082031 177.394531 95.304688 177.621094 95.578125 177.621094 L 96.457031 177.621094 L 96.457031 156.4375"/><path fill="#E24D54" d="M 122.195312 178.703125 L 120.824219 177.621094 L 120.824219 190.628906 L 122.195312 190.628906 L 122.195312 178.703125"/><path fill="#161819" d="M 126.90625 166.835938 C 126.90625 167.570312 126.308594 168.171875 125.570312 168.171875 L 105.269531 168.171875 C 104.53125 168.171875 103.933594 167.570312 103.933594 166.835938 L 103.933594 165.078125 C 103.933594 164.335938 104.53125 163.738281 105.269531 163.738281 L 125.570312 163.738281 C 126.308594 163.738281 126.90625 164.335938 126.90625 165.078125 L 126.90625 166.835938"/><path fill="#5C6F78" d="M 128.554688 141.046875 C 128.554688 142.050781 127.730469 142.875 126.730469 142.875 L 107.082031 142.875 C 106.078125 142.875 105.257812 142.050781 105.257812 141.046875 L 105.257812 140.359375 C 105.257812 139.359375 105.90625 138.03125 106.699219 137.410156 L 107.980469 136.410156 C 108.773438 135.792969 110.242188 135.285156 111.25 135.285156 L 122.5625 135.285156 C 123.570312 135.285156 125.039062 135.792969 125.832031 136.410156 L 127.113281 137.410156 C 127.90625 138.03125 128.554688 139.359375 128.554688 140.359375 L 128.554688 141.046875"/><path fill="#F39C1E" d="M 162.527344 219.910156 L 176.59375 219.910156 L 173.300781 209.71875 C 173.078125 209.015625 172.320312 208.628906 171.617188 208.859375 L 161.429688 212.148438 C 160.726562 212.378906 160.335938 213.132812 160.566406 213.835938 L 162.527344 219.910156"/><path fill="#F0871F" d="M 176.59375 219.910156 L 173.300781 209.71875 C 173.078125 209.015625 172.320312 208.628906 171.617188 208.859375 L 168.195312 209.964844 L 171.410156 219.910156 L 176.59375 219.910156"/><path fill="#A4B1B7" d="M 110.175781 178.066406 L 114.523438 176.660156 L 115.550781 179.84375 L 111.203125 181.25 C 110.09375 181.609375 109.476562 182.808594 109.835938 183.925781 L 113.421875 195.015625 C 113.816406 196.234375 115.285156 197.175781 116.5625 197.019531 L 157.074219 192.078125 C 159.957031 191.722656 162.910156 193.613281 163.800781 196.375 L 167.730469 208.53125 L 164.546875 209.558594 L 160.621094 197.402344 C 160.222656 196.179688 158.757812 195.242188 157.480469 195.398438 L 116.964844 200.339844 C 114.085938 200.695312 111.128906 198.804688 110.238281 196.042969 L 106.652344 184.953125 C 105.722656 182.082031 107.304688 178.992188 110.175781 178.066406"/><path fill="#F39C1E" d="M 177.007812 154.519531 C 176.777344 153.816406 177.164062 153.058594 177.871094 152.832031 L 179.140625 152.417969 C 179.84375 152.195312 180.597656 152.578125 180.828125 153.28125 L 182.988281 159.972656 C 183.214844 160.675781 182.828125 161.433594 182.125 161.65625 L 180.851562 162.070312 C 180.148438 162.296875 179.398438 161.910156 179.167969 161.207031 L 177.007812 154.519531"/><path fill="#F39C1E" d="M 115.546875 174.390625 C 115.324219 173.6875 114.566406 173.300781 113.863281 173.53125 L 112.589844 173.945312 C 111.886719 174.167969 111.5 174.921875 111.730469 175.628906 L 113.890625 182.316406 C 114.117188 183.019531 114.871094 183.40625 115.574219 183.179688 L 116.847656 182.769531 C 117.554688 182.539062 117.9375 181.785156 117.710938 181.078125 L 115.546875 174.390625"/><path fill="#B7BCC0" d="M 113.234375 172.675781 C 113.011719 171.972656 113.394531 171.214844 114.097656 170.992188 L 176.03125 150.960938 C 176.734375 150.734375 177.492188 151.121094 177.71875 151.828125 L 181.320312 162.972656 C 181.546875 163.675781 181.164062 164.433594 180.460938 164.660156 L 118.523438 184.6875 C 117.820312 184.917969 117.070312 184.53125 116.839844 183.824219 L 113.234375 172.675781"/><path fill="#9AA3A9" d="M 179.519531 157.398438 L 177.71875 151.828125 C 177.492188 151.121094 176.734375 150.734375 176.03125 150.960938 L 114.097656 170.992188 C 113.394531 171.214844 113.011719 171.972656 113.234375 172.675781 L 115.039062 178.253906 L 179.519531 157.398438"/><path fill="#7F8C92" d="M 178.644531 154.691406 L 177.71875 151.828125 C 177.492188 151.121094 176.734375 150.734375 176.03125 150.960938 L 114.097656 170.992188 C 113.394531 171.214844 113.011719 171.972656 113.234375 172.675781 L 114.164062 175.542969 L 178.644531 154.691406"/><path fill="#CED4D6" d="M 118.523438 184.6875 L 180.460938 164.660156 C 181.164062 164.433594 181.546875 163.675781 181.320312 162.972656 L 180.652344 160.902344 L 116.167969 181.753906 L 116.839844 183.824219 C 117.070312 184.53125 117.820312 184.917969 118.523438 184.6875"/><path fill="#A4B1B7" d="M 157.6875 210.105469 C 157.460938 209.402344 157.851562 208.648438 158.554688 208.417969 L 171.765625 204.144531 C 172.46875 203.921875 173.226562 204.304688 173.453125 205.011719 L 174.429688 208.035156 C 174.65625 208.738281 174.273438 209.492188 173.570312 209.71875 L 160.351562 213.996094 C 159.652344 214.21875 158.894531 213.835938 158.667969 213.128906 L 157.6875 210.105469"/><path fill="#E43839" d="M 194.429688 219.910156 L 190.054688 218.582031 C 189.597656 218.441406 189.113281 218.699219 188.976562 219.15625 L 188.75 219.910156 L 194.429688 219.910156"/><path fill="#718590" d="M 196.46875 219.910156 L 212.171875 168.121094 L 215.605469 162.429688 L 216.03125 153.855469 L 214.058594 153.257812 L 209.65625 160.621094 L 209.347656 167.265625 L 193.390625 219.910156 L 196.46875 219.910156"/><path fill="#849AA2" d="M 194.574219 219.910156 L 210.433594 167.59375 L 210.734375 160.949219 L 215.144531 153.585938 L 214.058594 153.257812 L 209.65625 160.621094 L 209.347656 167.265625 L 193.390625 219.910156 L 194.574219 219.910156"/><path fill="#334049" d="M 121.023438 318.050781 C 121.023438 319.6875 119.699219 321.011719 118.0625 321.011719 L 89.6875 321.011719 C 88.050781 321.011719 86.730469 319.6875 86.730469 318.050781 L 86.730469 311.140625 C 86.730469 309.507812 88.050781 308.179688 89.6875 308.179688 L 118.0625 308.179688 C 119.699219 308.179688 121.023438 309.507812 121.023438 311.140625 L 121.023438 318.050781"/><path fill="#212A30" d="M 118.0625 308.179688 L 89.6875 308.179688 C 88.050781 308.179688 86.730469 309.507812 86.730469 311.140625 L 86.730469 317.253906 C 94.664062 315.835938 114.386719 314.945312 121.023438 314.683594 L 121.023438 311.140625 C 121.023438 309.507812 119.699219 308.179688 118.0625 308.179688"/><path fill="#334049" d="M 279.265625 318.050781 C 279.265625 319.6875 277.9375 321.011719 276.304688 321.011719 L 247.929688 321.011719 C 246.296875 321.011719 244.96875 319.6875 244.96875 318.050781 L 244.96875 311.140625 C 244.96875 309.507812 246.296875 308.179688 247.929688 308.179688 L 276.304688 308.179688 C 277.9375 308.179688 279.265625 309.507812 279.265625 311.140625 L 279.265625 318.050781"/><path fill="#212A30" d="M 276.304688 308.179688 L 247.929688 308.179688 C 246.296875 308.179688 244.96875 309.507812 244.96875 311.140625 L 244.96875 317.253906 C 252.910156 315.835938 272.632812 314.945312 279.265625 314.683594 L 279.265625 311.140625 C 279.265625 309.507812 277.9375 308.179688 276.304688 308.179688"/><path fill="#55636D" d="M 69.007812 219.824219 L 69.007812 309.167969 C 69.007812 310.800781 70.335938 312.128906 71.96875 312.128906 L 294.027344 312.128906 C 295.660156 312.128906 296.984375 310.800781 296.984375 309.167969 L 296.984375 219.824219 L 69.007812 219.824219"/><path fill="#748B93" d="M 69.007812 219.824219 L 69.007812 223.03125 L 296.984375 223.03125 L 296.984375 219.824219 L 69.007812 219.824219"/><path fill="#4E5B65" d="M 294.027344 312.128906 L 71.96875 312.128906 C 70.335938 312.128906 69.007812 310.800781 69.007812 309.167969 L 69.007812 240.199219 C 84.183594 244.613281 117.082031 254.042969 154.046875 263.703125 L 154.046875 297.648438 C 154.046875 298.285156 154.5625 298.800781 155.199219 298.800781 C 155.832031 298.800781 156.351562 298.285156 156.351562 297.648438 L 156.351562 264.304688 C 160.582031 265.40625 164.871094 266.511719 169.179688 267.609375 L 169.179688 297.648438 C 169.179688 298.285156 169.695312 298.800781 170.332031 298.800781 C 170.96875 298.800781 171.480469 298.285156 171.480469 297.648438 L 171.480469 268.195312 C 175.734375 269.277344 180.027344 270.351562 184.3125 271.410156 L 184.3125 297.648438 C 184.3125 298.285156 184.828125 298.800781 185.464844 298.800781 C 186.101562 298.800781 186.617188 298.285156 186.617188 297.648438 L 186.617188 271.984375 C 190.894531 273.035156 195.179688 274.078125 199.445312 275.097656 L 199.445312 297.648438 C 199.445312 298.285156 199.960938 298.800781 200.597656 298.800781 C 201.234375 298.800781 201.75 298.285156 201.75 297.648438 L 201.75 275.644531 C 206.050781 276.667969 210.339844 277.667969 214.578125 278.636719 L 214.578125 297.648438 C 214.578125 298.285156 215.09375 298.800781 215.726562 298.800781 C 216.367188 298.800781 216.882812 298.285156 216.882812 297.648438 L 216.882812 279.160156 C 221.210938 280.144531 225.5 281.097656 229.710938 282.007812 L 229.710938 297.648438 C 229.710938 298.285156 230.226562 298.800781 230.863281 298.800781 C 231.496094 298.800781 232.015625 298.285156 232.015625 297.648438 L 232.015625 282.5 C 258.285156 288.113281 281.703125 292.105469 296.984375 292.621094 L 296.984375 309.167969 C 296.984375 310.800781 295.660156 312.128906 294.027344 312.128906"/><path fill="#3C4952" d="M 85.578125 304.148438 C 85.578125 305.238281 84.695312 306.121094 83.605469 306.121094 C 82.515625 306.121094 81.632812 305.238281 81.632812 304.148438 L 81.632812 227.800781 C 81.632812 226.714844 82.515625 225.828125 83.605469 225.828125 C 84.695312 225.828125 85.578125 226.714844 85.578125 227.800781 L 85.578125 304.148438"/><path fill="#3C4952" d="M 100.871094 304.148438 C 100.871094 305.238281 99.984375 306.121094 98.898438 306.121094 C 97.804688 306.121094 96.925781 305.238281 96.925781 304.148438 L 96.925781 227.800781 C 96.925781 226.714844 97.804688 225.828125 98.898438 225.828125 C 99.984375 225.828125 100.871094 226.714844 100.871094 227.800781 L 100.871094 304.148438"/><path fill="#3C4952" d="M 116.160156 304.148438 C 116.160156 305.238281 115.277344 306.121094 114.1875 306.121094 C 113.097656 306.121094 112.214844 305.238281 112.214844 304.148438 L 112.214844 227.800781 C 112.214844 226.714844 113.097656 225.828125 114.1875 225.828125 C 115.277344 225.828125 116.160156 226.714844 116.160156 227.800781 L 116.160156 304.148438"/><path fill="#3C4952" d="M 131.453125 304.148438 C 131.453125 305.238281 130.570312 306.121094 129.480469 306.121094 C 128.386719 306.121094 127.503906 305.238281 127.503906 304.148438 L 127.503906 227.800781 C 127.503906 226.714844 128.386719 225.828125 129.480469 225.828125 C 130.570312 225.828125 131.453125 226.714844 131.453125 227.800781 L 131.453125 304.148438"/><path fill="#3C4952" d="M 146.746094 304.148438 C 146.746094 305.238281 145.859375 306.121094 144.769531 306.121094 C 143.679688 306.121094 142.792969 305.238281 142.792969 304.148438 L 142.792969 227.800781 C 142.792969 226.714844 143.679688 225.828125 144.769531 225.828125 C 145.859375 225.828125 146.746094 226.714844 146.746094 227.800781 L 146.746094 304.148438"/><path fill="#3C4952" d="M 162.035156 304.148438 C 162.035156 305.238281 161.152344 306.121094 160.0625 306.121094 C 158.96875 306.121094 158.085938 305.238281 158.085938 304.148438 L 158.085938 227.800781 C 158.085938 226.714844 158.96875 225.828125 160.0625 225.828125 C 161.152344 225.828125 162.035156 226.714844 162.035156 227.800781 L 162.035156 304.148438"/><path fill="#3C4952" d="M 177.324219 304.148438 C 177.324219 305.238281 176.441406 306.121094 175.351562 306.121094 C 174.261719 306.121094 173.375 305.238281 173.375 304.148438 L 173.375 227.800781 C 173.375 226.714844 174.261719 225.828125 175.351562 225.828125 C 176.441406 225.828125 177.324219 226.714844 177.324219 227.800781 L 177.324219 304.148438"/><path fill="#3C4952" d="M 192.613281 304.148438 C 192.613281 305.238281 191.734375 306.121094 190.640625 306.121094 C 189.554688 306.121094 188.667969 305.238281 188.667969 304.148438 L 188.667969 227.800781 C 188.667969 226.714844 189.554688 225.828125 190.640625 225.828125 C 191.734375 225.828125 192.613281 226.714844 192.613281 227.800781 L 192.613281 304.148438"/><path fill="#3C4952" d="M 207.90625 304.148438 C 207.90625 305.238281 207.023438 306.121094 205.933594 306.121094 C 204.84375 306.121094 203.960938 305.238281 203.960938 304.148438 L 203.960938 227.800781 C 203.960938 226.714844 204.84375 225.828125 205.933594 225.828125 C 207.023438 225.828125 207.90625 226.714844 207.90625 227.800781 L 207.90625 304.148438"/><path fill="#3C4952" d="M 223.199219 304.148438 C 223.199219 305.238281 222.316406 306.121094 221.222656 306.121094 C 220.136719 306.121094 219.25 305.238281 219.25 304.148438 L 219.25 227.800781 C 219.25 226.714844 220.136719 225.828125 221.222656 225.828125 C 222.316406 225.828125 223.199219 226.714844 223.199219 227.800781 L 223.199219 304.148438"/><path fill="#3C4952" d="M 238.488281 304.148438 C 238.488281 305.238281 237.605469 306.121094 236.515625 306.121094 C 235.425781 306.121094 234.542969 305.238281 234.542969 304.148438 L 234.542969 227.800781 C 234.542969 226.714844 235.425781 225.828125 236.515625 225.828125 C 237.605469 225.828125 238.488281 226.714844 238.488281 227.800781 L 238.488281 304.148438"/><path fill="#3C4952" d="M 253.78125 304.148438 C 253.78125 305.238281 252.894531 306.121094 251.804688 306.121094 C 250.714844 306.121094 249.832031 305.238281 249.832031 304.148438 L 249.832031 227.800781 C 249.832031 226.714844 250.714844 225.828125 251.804688 225.828125 C 252.894531 225.828125 253.78125 226.714844 253.78125 227.800781 L 253.78125 304.148438"/><path fill="#3C4952" d="M 269.070312 304.148438 C 269.070312 305.238281 268.1875 306.121094 267.097656 306.121094 C 266.007812 306.121094 265.125 305.238281 265.125 304.148438 L 265.125 227.800781 C 265.125 226.714844 266.007812 225.828125 267.097656 225.828125 C 268.1875 225.828125 269.070312 226.714844 269.070312 227.800781 L 269.070312 304.148438"/><path fill="#3C4952" d="M 284.363281 304.148438 C 284.363281 305.238281 283.476562 306.121094 282.390625 306.121094 C 281.296875 306.121094 280.414062 305.238281 280.414062 304.148438 L 280.414062 227.800781 C 280.414062 226.714844 281.296875 225.828125 282.390625 225.828125 C 283.476562 225.828125 284.363281 226.714844 284.363281 227.800781 L 284.363281 304.148438"/><path fill="#B8CBD1" d="M 120.84375 230.351562 C 120.84375 231.984375 119.519531 233.3125 117.886719 233.3125 L 108.519531 233.3125 C 106.878906 233.3125 105.554688 231.984375 105.554688 230.351562 L 105.554688 213.898438 C 105.554688 212.261719 106.878906 210.933594 108.519531 210.933594 L 117.886719 210.933594 C 119.519531 210.933594 120.84375 212.261719 120.84375 213.898438 L 120.84375 230.351562"/><path fill="#A0B5BC" d="M 120.84375 230.351562 L 120.84375 230.210938 C 117.234375 232.601562 106.878906 229.203125 106.878906 229.203125 C 106.878906 229.203125 106.753906 214.886719 106.878906 213.714844 C 107.003906 212.542969 109.597656 212.667969 116.253906 212.667969 C 118.628906 212.667969 120 212.933594 120.78125 213.277344 C 120.496094 211.9375 119.304688 210.933594 117.886719 210.933594 L 108.519531 210.933594 C 106.878906 210.933594 105.554688 212.261719 105.554688 213.898438 L 105.554688 230.351562 C 105.554688 231.984375 106.878906 233.3125 108.519531 233.3125 L 117.886719 233.3125 C 119.519531 233.3125 120.84375 231.984375 120.84375 230.351562"/><path fill="#859A9E" d="M 107.585938 223.03125 L 107.585938 226.488281 L 118.8125 226.488281 L 118.8125 223.03125 L 107.585938 223.03125"/><path fill="#E4F0F2" d="M 118.8125 225.253906 L 107.585938 225.253906 L 107.585938 219.699219 L 118.8125 219.699219 L 118.8125 225.253906"/><path fill="#B8CBD1" d="M 260.4375 229.65625 C 260.4375 231.289062 259.113281 232.617188 257.476562 232.617188 L 248.109375 232.617188 C 246.472656 232.617188 245.148438 231.289062 245.148438 229.65625 L 245.148438 213.203125 C 245.148438 211.566406 246.472656 210.238281 248.109375 210.238281 L 257.476562 210.238281 C 259.113281 210.238281 260.4375 211.566406 260.4375 213.203125 L 260.4375 229.65625"/><path fill="#A0B5BC" d="M 260.4375 229.65625 L 260.4375 229.515625 C 256.828125 231.90625 246.476562 228.503906 246.476562 228.503906 C 246.476562 228.503906 246.351562 214.191406 246.476562 213.019531 C 246.597656 211.847656 249.1875 211.972656 255.851562 211.972656 C 258.222656 211.972656 259.589844 212.238281 260.371094 212.582031 C 260.085938 211.242188 258.902344 210.238281 257.476562 210.238281 L 248.109375 210.238281 C 246.472656 210.238281 245.148438 211.566406 245.148438 213.203125 L 245.148438 229.65625 C 245.148438 231.289062 246.472656 232.617188 248.109375 232.617188 L 257.476562 232.617188 C 259.113281 232.617188 260.4375 231.289062 260.4375 229.65625"/><path fill="#859A9E" d="M 247.179688 222.335938 L 247.179688 225.792969 L 258.40625 225.792969 L 258.40625 222.335938 L 247.179688 222.335938"/><path fill="#E4F0F2" d="M 258.40625 224.558594 L 247.179688 224.558594 L 247.179688 219.003906 L 258.40625 219.003906 L 258.40625 224.558594"/><path fill="#71828A" d="M 156.351562 264.304688 C 155.582031 264.105469 154.8125 263.902344 154.046875 263.703125 L 154.046875 229.859375 C 154.046875 229.222656 154.5625 228.707031 155.199219 228.707031 C 155.832031 228.707031 156.351562 229.222656 156.351562 229.859375 L 156.351562 264.304688"/><path fill="#6C7C85" d="M 155.199219 298.800781 C 154.5625 298.800781 154.046875 298.285156 154.046875 297.648438 L 154.046875 263.703125 C 154.8125 263.902344 155.582031 264.105469 156.351562 264.304688 L 156.351562 297.648438 C 156.351562 298.285156 155.832031 298.800781 155.199219 298.800781"/><path fill="#71828A" d="M 171.480469 268.195312 C 170.710938 268 169.949219 267.804688 169.179688 267.609375 L 169.179688 229.859375 C 169.179688 229.222656 169.695312 228.707031 170.332031 228.707031 C 170.96875 228.707031 171.480469 229.222656 171.480469 229.859375 L 171.480469 268.195312"/><path fill="#6C7C85" d="M 170.332031 298.800781 C 169.695312 298.800781 169.179688 298.285156 169.179688 297.648438 L 169.179688 267.609375 C 169.949219 267.804688 170.710938 268 171.480469 268.195312 L 171.480469 297.648438 C 171.480469 298.285156 170.96875 298.800781 170.332031 298.800781"/><path fill="#71828A" d="M 186.617188 271.984375 C 185.84375 271.789062 185.085938 271.605469 184.3125 271.410156 L 184.3125 229.859375 C 184.3125 229.222656 184.828125 228.707031 185.464844 228.707031 C 186.101562 228.707031 186.617188 229.222656 186.617188 229.859375 L 186.617188 271.984375"/><path fill="#6C7C85" d="M 185.464844 298.800781 C 184.828125 298.800781 184.3125 298.285156 184.3125 297.648438 L 184.3125 271.410156 C 185.085938 271.605469 185.84375 271.789062 186.617188 271.984375 L 186.617188 297.648438 C 186.617188 298.285156 186.101562 298.800781 185.464844 298.800781"/><path fill="#71828A" d="M 201.75 275.644531 C 200.980469 275.464844 200.214844 275.28125 199.445312 275.097656 L 199.445312 229.859375 C 199.445312 229.222656 199.960938 228.707031 200.597656 228.707031 C 201.234375 228.707031 201.75 229.222656 201.75 229.859375 L 201.75 275.644531"/><path fill="#6C7C85" d="M 200.597656 298.800781 C 199.960938 298.800781 199.445312 298.285156 199.445312 297.648438 L 199.445312 275.097656 C 200.214844 275.28125 200.980469 275.464844 201.75 275.644531 L 201.75 297.648438 C 201.75 298.285156 201.234375 298.800781 200.597656 298.800781"/><path fill="#677881" d="M 216.882812 279.160156 C 216.109375 278.988281 215.351562 278.816406 214.578125 278.636719 L 214.578125 229.859375 C 214.578125 229.222656 215.09375 228.707031 215.726562 228.707031 C 216.367188 228.707031 216.882812 229.222656 216.882812 229.859375 L 216.882812 279.160156"/><path fill="#61707A" d="M 215.726562 298.800781 C 215.09375 298.800781 214.578125 298.285156 214.578125 297.648438 L 214.578125 278.636719 C 215.351562 278.816406 216.109375 278.988281 216.882812 279.160156 L 216.882812 297.648438 C 216.882812 298.285156 216.367188 298.800781 215.726562 298.800781"/><path fill="#5F6D77" d="M 232.015625 282.5 C 231.25 282.335938 230.484375 282.171875 229.710938 282.007812 L 229.710938 229.859375 C 229.710938 229.222656 230.226562 228.707031 230.863281 228.707031 C 231.496094 228.707031 232.015625 229.222656 232.015625 229.859375 L 232.015625 282.5"/><path fill="#586670" d="M 230.863281 298.800781 C 230.226562 298.800781 229.710938 298.285156 229.710938 297.648438 L 229.710938 282.007812 C 230.484375 282.171875 231.25 282.335938 232.015625 282.5 L 232.015625 297.648438 C 232.015625 298.285156 231.496094 298.800781 230.863281 298.800781"/><path fill="#E43839" d="M 207.453125 264.957031 L 227.796875 195.980469 C 228.367188 193.988281 226.890625 191.816406 224.5 191.132812 C 222.109375 190.445312 219.710938 191.507812 219.140625 193.5 L 199.921875 262.800781 L 207.453125 264.957031"/><path fill="#B9272C" d="M 201.9375 263.378906 L 221.542969 192.636719 C 221.738281 191.945312 222.160156 191.367188 222.71875 190.933594 C 221.011719 191.042969 219.566406 192.007812 219.140625 193.5 L 199.921875 262.800781 L 201.9375 263.378906"/><path fill="#9AA3A9" d="M 195.390625 261.800781 C 195.707031 260.707031 196.84375 260.074219 197.9375 260.390625 L 210.410156 263.957031 C 211.503906 264.273438 212.136719 265.414062 211.824219 266.507812 L 210.550781 270.964844 C 210.238281 272.0625 209.09375 272.695312 208.003906 272.382812 L 195.53125 268.808594 C 194.433594 268.5 193.804688 267.355469 194.113281 266.261719 L 195.390625 261.800781"/><path fill="#71808A" d="M 195.53125 268.808594 L 208.003906 272.382812 C 209.09375 272.695312 210.238281 272.0625 210.550781 270.964844 L 211.585938 267.34375 L 195.152344 262.636719 L 194.113281 266.261719 C 193.804688 267.355469 194.433594 268.5 195.53125 268.808594"/><path fill="#C37431" d="M 179.292969 280.78125 L 215.449219 291.128906 L 206.90625 327.550781 L 167.28125 316.203125 L 179.292969 280.78125"/><path fill="#A75B2A" d="M 212.5625 303.4375 L 215.449219 291.128906 L 179.292969 280.78125 L 175.234375 292.75 L 212.5625 303.4375"/><path fill="#B7BCC0" d="M 215.804688 296.050781 C 215.996094 295.640625 216.15625 295.210938 216.289062 294.761719 L 220.066406 281.550781 C 221.371094 276.988281 218.734375 272.234375 214.175781 270.925781 L 191.0625 264.308594 C 186.503906 263.003906 181.746094 265.644531 180.441406 270.207031 L 176.664062 283.417969 C 176.53125 283.867188 176.445312 284.316406 176.390625 284.765625 L 215.804688 296.050781"/><path fill="#D9DDE1" d="M 216.101562 280.414062 L 212.324219 293.625 C 212.195312 294.074219 212.03125 294.507812 211.839844 294.917969 L 215.804688 296.050781 C 215.996094 295.640625 216.15625 295.210938 216.289062 294.761719 L 220.066406 281.550781 C 221.371094 276.988281 218.734375 272.234375 214.175781 270.925781 L 210.210938 269.792969 C 214.773438 271.097656 217.410156 275.851562 216.101562 280.414062"/><path fill="#E9C720" d="M 271.765625 316.550781 C 271.765625 316.550781 216.351562 316.667969 214.816406 317.539062 C 214.816406 317.539062 228.464844 334.878906 238.539062 336.617188 C 248.613281 338.359375 262.796875 333.4375 271.765625 333.355469 C 280.234375 333.277344 294.328125 336.988281 304.992188 336.617188 C 315.203125 336.269531 328.917969 317.308594 328.917969 317.308594 C 327.378906 316.4375 271.765625 316.550781 271.765625 316.550781"/><path fill="#F0871F" d="M 325.0625 304.835938 L 325.066406 304.695312 C 325.066406 274.804688 301.203125 250.574219 271.765625 250.574219 C 242.328125 250.574219 218.464844 274.804688 218.464844 304.695312 L 218.464844 304.835938 L 217.355469 314.320312 L 326.101562 314.992188 L 325.0625 304.835938"/><path fill="#F09840" d="M 218.59375 304.835938 C 220.5 276.710938 243.578125 254.496094 271.765625 254.496094 C 299.953125 254.496094 323.027344 276.710938 324.9375 304.835938 L 325.0625 304.835938 L 325.066406 304.695312 C 325.066406 274.804688 301.203125 250.574219 271.765625 250.574219 C 242.328125 250.574219 218.464844 274.804688 218.464844 304.695312 L 218.464844 304.835938 L 218.59375 304.835938"/><path fill="#E9C720" d="M 287.019531 247.386719 C 287.019531 247.386719 277.050781 245.355469 271.765625 245.644531 C 266.476562 245.355469 256.511719 247.386719 256.511719 247.386719 C 254.835938 249.125 254.820312 253.371094 254.820312 253.371094 C 257.164062 262.835938 260.476562 281.625 260.476562 281.625 L 283.054688 281.625 C 283.054688 281.625 286.367188 262.835938 288.710938 253.371094 C 288.710938 253.371094 288.695312 249.125 287.019531 247.386719"/><path fill="#E9DD80" d="M 256.511719 250.722656 C 256.511719 250.722656 266.476562 248.691406 271.765625 248.980469 C 277.050781 248.691406 287.019531 250.722656 287.019531 250.722656 C 287.84375 251.578125 288.265625 253.042969 288.484375 254.308594 C 288.558594 253.988281 288.636719 253.675781 288.710938 253.371094 C 288.710938 253.371094 288.695312 249.125 287.019531 247.386719 C 287.019531 247.386719 277.050781 245.355469 271.765625 245.644531 C 266.476562 245.355469 256.511719 247.386719 256.511719 247.386719 C 254.835938 249.125 254.820312 253.371094 254.820312 253.371094 C 254.894531 253.675781 254.96875 253.988281 255.046875 254.308594 C 255.265625 253.042969 255.6875 251.578125 256.511719 250.722656"/><path fill="#E9C720" d="M 288.710938 290.621094 C 288.710938 290.621094 285.339844 288.007812 271.765625 286.558594 C 258.191406 288.007812 254.820312 290.621094 254.820312 290.621094 C 254.167969 294.632812 255.695312 307.445312 256.289062 312.09375 L 287.238281 312.09375 C 287.835938 307.445312 289.363281 294.632812 288.710938 290.621094"/><path fill="#E9DD80" d="M 254.820312 294.449219 C 254.820312 294.449219 258.191406 291.839844 271.765625 290.390625 C 285.339844 291.839844 288.710938 294.449219 288.710938 294.449219 C 288.757812 294.75 288.792969 295.101562 288.820312 295.492188 C 288.902344 293.445312 288.886719 291.707031 288.710938 290.621094 C 288.710938 290.621094 285.339844 288.007812 271.765625 286.558594 C 258.191406 288.007812 254.820312 290.621094 254.820312 290.621094 C 254.640625 291.707031 254.625 293.445312 254.707031 295.492188 C 254.734375 295.101562 254.769531 294.75 254.820312 294.449219"/><path fill="#E9C720" d="M 213.320312 312.09375 L 218.464844 312.09375 C 218.464844 312.09375 218.886719 303.769531 221.390625 294.222656 C 221.390625 294.222656 218.039062 294.972656 216.75 297.148438 C 216.75 297.148438 214.464844 303.242188 213.320312 312.09375"/><path fill="#E9C720" d="M 330.132812 312.09375 L 324.992188 312.09375 C 324.992188 312.09375 324.566406 303.769531 322.0625 294.222656 C 322.0625 294.222656 325.417969 294.972656 326.703125 297.148438 C 326.703125 297.148438 328.992188 303.242188 330.132812 312.09375"/><path fill="#E9C720" d="M 228.566406 307.738281 C 228.566406 307.738281 229.894531 296.664062 232.28125 294.222656 C 234.660156 291.78125 243.136719 293.371094 243.710938 294.222656 C 244.28125 295.070312 244.089844 307.738281 244.089844 307.738281 L 228.566406 307.738281"/><path fill="#E9DD80" d="M 231.261719 296.347656 C 233.789062 294.066406 242.371094 295.3125 243.984375 296.179688 C 243.921875 295.140625 243.835938 294.402344 243.710938 294.222656 C 243.136719 293.371094 234.660156 291.78125 232.28125 294.222656 C 231.78125 294.730469 231.328125 295.625 230.921875 296.710938 C 231.035156 296.574219 231.148438 296.453125 231.261719 296.347656"/><path fill="#E9C720" d="M 226.464844 312.09375 C 226.464844 312.09375 227.179688 307.160156 228.039062 306.871094 C 228.894531 306.578125 244.617188 306.742188 244.617188 306.742188 C 244.617188 306.742188 246.1875 309.628906 246.1875 312.09375 L 226.464844 312.09375"/><path fill="#E9DD80" d="M 245.359375 308.382812 C 244.980469 307.414062 244.617188 306.742188 244.617188 306.742188 C 244.617188 306.742188 228.894531 306.578125 228.039062 306.871094 C 227.738281 306.972656 227.453125 307.652344 227.207031 308.496094 C 228.746094 308.246094 243.574219 308.367188 245.359375 308.382812"/><path fill="#E9C720" d="M 312.394531 307.738281 C 312.394531 307.738281 311.058594 296.664062 308.679688 294.222656 C 306.296875 291.78125 297.820312 293.371094 297.25 294.222656 C 296.675781 295.070312 296.867188 307.738281 296.867188 307.738281 L 312.394531 307.738281"/><path fill="#E9DD80" d="M 309.691406 296.347656 C 307.164062 294.066406 298.585938 295.3125 296.972656 296.179688 C 297.035156 295.140625 297.125 294.402344 297.25 294.222656 C 297.820312 293.371094 306.296875 291.78125 308.679688 294.222656 C 309.179688 294.730469 309.632812 295.625 310.035156 296.710938 C 309.925781 296.574219 309.808594 296.453125 309.691406 296.347656"/><path fill="#E9C720" d="M 314.488281 312.09375 C 314.488281 312.09375 313.773438 307.160156 312.917969 306.871094 C 312.0625 306.578125 296.34375 306.742188 296.34375 306.742188 C 296.34375 306.742188 294.773438 309.628906 294.773438 312.09375 L 314.488281 312.09375"/><path fill="#E9DD80" d="M 295.601562 308.382812 C 295.976562 307.414062 296.34375 306.742188 296.34375 306.742188 C 296.34375 306.742188 312.0625 306.578125 312.917969 306.871094 C 313.222656 306.972656 313.507812 307.652344 313.75 308.496094 C 312.210938 308.246094 297.378906 308.367188 295.601562 308.382812"/><path fill="#E9C720" d="M 330.132812 315.96875 C 330.132812 316.289062 329.878906 316.550781 329.5625 316.550781 L 213.894531 316.550781 C 213.578125 316.550781 213.320312 316.289062 213.320312 315.96875 L 213.320312 312.671875 C 213.320312 312.355469 213.578125 312.09375 213.894531 312.09375 L 329.5625 312.09375 C 329.878906 312.09375 330.132812 312.355469 330.132812 312.671875 L 330.132812 315.96875"/><path fill="#F0871F" d="M 271.726562 314.320312 C 271.726562 314.320312 215.433594 315.679688 213.894531 316.550781 C 213.894531 316.550781 228.429688 332.652344 238.503906 334.394531 C 248.574219 336.132812 262.761719 331.210938 271.726562 331.128906 C 280.195312 331.054688 294.292969 334.757812 304.953125 334.394531 C 315.167969 334.039062 329.5625 316.550781 329.5625 316.550781 C 328.023438 315.679688 271.726562 314.320312 271.726562 314.320312"/><g clip-path="url(#d)"><path fill="#FFF" d="M 138.234375 56.433594 C 138.234375 57.785156 138.011719 59.058594 137.566406 60.257812 C 137.121094 61.453125 136.496094 62.539062 135.691406 63.507812 C 134.890625 64.472656 133.941406 65.308594 132.84375 66.011719 C 131.75 66.710938 130.566406 67.253906 129.289062 67.636719 C 128.730469 67.8125 128.160156 67.953125 127.570312 68.058594 C 126.984375 68.15625 126.398438 68.207031 125.816406 68.207031 C 125.226562 68.207031 124.648438 68.15625 124.074219 68.058594 C 123.503906 67.953125 122.933594 67.8125 122.375 67.636719 C 121.101562 67.253906 119.917969 66.710938 118.820312 66.011719 C 117.726562 65.308594 116.777344 64.472656 115.972656 63.507812 C 115.171875 62.539062 114.546875 61.453125 114.097656 60.257812 C 113.652344 59.058594 113.433594 57.785156 113.433594 56.433594 L 113.433594 37.625 L 121.6875 37.625 L 121.6875 55.9375 C 121.6875 56.5 121.800781 57.015625 122.03125 57.484375 C 122.261719 57.957031 122.5625 58.363281 122.949219 58.710938 C 123.332031 59.050781 123.769531 59.320312 124.265625 59.511719 C 124.761719 59.703125 125.28125 59.796875 125.816406 59.796875 C 126.375 59.796875 126.902344 59.703125 127.398438 59.511719 C 127.894531 59.320312 128.335938 59.050781 128.71875 58.710938 C 129.101562 58.363281 129.40625 57.957031 129.636719 57.484375 C 129.867188 57.015625 129.980469 56.5 129.980469 55.9375 L 129.980469 37.625 L 138.234375 37.625 L 138.234375 56.433594"/></g><g clip-path="url(#e)"><path fill="#FFF" d="M 160.976562 67.253906 L 150.695312 51.425781 L 150.695312 67.253906 L 142.785156 67.253906 L 142.785156 37.625 L 150.65625 37.625 L 160.976562 53.605469 L 160.976562 37.625 L 168.921875 37.625 L 168.921875 67.253906 L 160.976562 67.253906"/></g><g clip-path="url(#f)"><path fill="#FFF" d="M 186.617188 44.851562 L 182.070312 44.851562 L 182.070312 60.066406 L 186.617188 60.066406 C 187.691406 60.066406 188.691406 59.871094 189.617188 59.472656 C 190.546875 59.082031 191.359375 58.539062 192.042969 57.847656 C 192.734375 57.160156 193.273438 56.351562 193.671875 55.421875 C 194.0625 54.488281 194.261719 53.5 194.261719 52.457031 C 194.261719 51.414062 194.0625 50.429688 193.671875 49.496094 C 193.273438 48.566406 192.734375 47.757812 192.042969 47.070312 C 191.359375 46.378906 190.546875 45.835938 189.617188 45.445312 C 188.691406 45.046875 187.691406 44.851562 186.617188 44.851562 Z M 187.535156 67.289062 L 174.273438 67.289062 L 174.273438 37.625 L 187.535156 37.625 C 189.597656 37.625 191.539062 38.011719 193.34375 38.789062 C 195.152344 39.570312 196.734375 40.625 198.085938 41.964844 C 199.433594 43.304688 200.496094 44.878906 201.277344 46.683594 C 202.054688 48.496094 202.4375 50.421875 202.4375 52.457031 C 202.4375 54.496094 202.054688 56.421875 201.277344 58.230469 C 200.496094 60.039062 199.433594 61.613281 198.085938 62.953125 C 196.734375 64.292969 195.152344 65.347656 193.34375 66.128906 C 191.539062 66.902344 189.597656 67.289062 187.535156 67.289062"/></g><g clip-path="url(#g)"><path fill="#FFF" d="M 206.03125 67.289062 L 206.03125 37.625 L 229.691406 37.625 L 229.691406 44.699219 L 213.75 44.699219 L 213.75 48.941406 L 228.773438 48.941406 L 228.773438 56.015625 L 213.75 56.015625 L 213.75 60.257812 L 229.691406 60.257812 L 229.691406 67.289062 L 206.03125 67.289062"/></g><g clip-path="url(#h)"><path fill="#FFF" d="M 246.507812 44.238281 L 241.882812 44.238281 L 241.882812 50.625 L 246.507812 50.625 C 246.964844 50.625 247.394531 50.542969 247.804688 50.378906 C 248.214844 50.210938 248.570312 49.984375 248.875 49.691406 C 249.179688 49.398438 249.421875 49.0625 249.601562 48.6875 C 249.78125 48.308594 249.867188 47.886719 249.867188 47.433594 C 249.867188 46.976562 249.78125 46.558594 249.601562 46.175781 C 249.421875 45.796875 249.179688 45.460938 248.875 45.167969 C 248.570312 44.878906 248.214844 44.652344 247.804688 44.488281 C 247.394531 44.320312 246.964844 44.238281 246.507812 44.238281 Z M 252.277344 67.289062 L 247.117188 58.117188 L 242.109375 58.117188 L 242.148438 67.289062 L 233.972656 67.289062 L 233.972656 37.625 L 248.835938 37.625 C 249.550781 37.625 250.277344 37.757812 251.015625 38.027344 C 251.753906 38.292969 252.46875 38.652344 253.15625 39.097656 C 253.84375 39.542969 254.480469 40.046875 255.066406 40.609375 C 255.652344 41.167969 256.148438 41.742188 256.554688 42.328125 C 257.066406 43.066406 257.457031 43.925781 257.722656 44.910156 C 257.992188 45.886719 258.121094 46.824219 258.121094 47.71875 C 258.121094 49.195312 257.78125 50.570312 257.089844 51.847656 C 256.40625 53.121094 255.449219 54.195312 254.226562 55.058594 L 261.179688 67.289062 L 252.277344 67.289062"/></g><path fill="#FFF" d="M 118.925781 87.832031 C 117.953125 87.832031 117.042969 87.648438 116.199219 87.28125 C 115.355469 86.914062 114.621094 86.410156 113.988281 85.765625 C 113.359375 85.128906 112.863281 84.382812 112.5 83.539062 C 112.140625 82.695312 111.957031 81.796875 111.957031 80.84375 C 111.957031 79.894531 112.140625 78.996094 112.5 78.148438 C 112.863281 77.308594 113.359375 76.5625 113.988281 75.921875 C 114.621094 75.28125 115.355469 74.777344 116.199219 74.410156 C 117.042969 74.039062 117.953125 73.855469 118.925781 73.855469 C 119.8125 73.855469 120.660156 74.019531 121.476562 74.339844 C 122.292969 74.664062 123.046875 75.128906 123.738281 75.742188 L 121.019531 78.125 C 120.363281 77.660156 119.671875 77.429688 118.945312 77.429688 C 118.46875 77.429688 118.027344 77.519531 117.617188 77.699219 C 117.210938 77.882812 116.863281 78.132812 116.566406 78.449219 C 116.269531 78.761719 116.039062 79.132812 115.871094 79.546875 C 115.699219 79.960938 115.613281 80.390625 115.613281 80.84375 C 115.613281 81.308594 115.699219 81.746094 115.871094 82.160156 C 116.039062 82.574219 116.269531 82.941406 116.566406 83.25 C 116.863281 83.566406 117.207031 83.8125 117.609375 84 C 118.011719 84.1875 118.453125 84.277344 118.925781 84.277344 C 119.46875 84.277344 119.980469 84.152344 120.449219 83.90625 C 120.917969 83.65625 121.328125 83.304688 121.683594 82.851562 L 124.488281 85.128906 C 123.785156 85.992188 122.953125 86.65625 121.996094 87.128906 C 121.039062 87.597656 120.015625 87.832031 118.925781 87.832031"/><path fill="#FFF" d="M 131.402344 77.238281 C 130.90625 77.238281 130.445312 77.339844 130.019531 77.539062 C 129.59375 77.734375 129.230469 78 128.921875 78.328125 C 128.617188 78.65625 128.375 79.039062 128.199219 79.476562 C 128.023438 79.914062 127.9375 80.375 127.9375 80.863281 C 127.9375 81.335938 128.023438 81.796875 128.199219 82.238281 C 128.375 82.683594 128.617188 83.066406 128.921875 83.398438 C 129.230469 83.726562 129.59375 83.988281 130.019531 84.1875 C 130.445312 84.382812 130.90625 84.480469 131.402344 84.480469 C 131.902344 84.480469 132.363281 84.382812 132.789062 84.1875 C 133.210938 83.988281 133.582031 83.726562 133.886719 83.398438 C 134.191406 83.066406 134.433594 82.683594 134.609375 82.238281 C 134.78125 81.796875 134.871094 81.335938 134.871094 80.863281 C 134.871094 80.375 134.78125 79.914062 134.609375 79.476562 C 134.433594 79.039062 134.191406 78.65625 133.886719 78.328125 C 133.582031 78 133.210938 77.734375 132.789062 77.539062 C 132.363281 77.339844 131.902344 77.238281 131.402344 77.238281 Z M 131.402344 87.832031 C 130.429688 87.832031 129.515625 87.652344 128.667969 87.289062 C 127.816406 86.925781 127.074219 86.429688 126.441406 85.800781 C 125.808594 85.171875 125.304688 84.433594 124.9375 83.582031 C 124.566406 82.734375 124.382812 81.824219 124.382812 80.863281 C 124.382812 79.898438 124.566406 78.992188 124.9375 78.140625 C 125.304688 77.289062 125.808594 76.550781 126.441406 75.921875 C 127.074219 75.292969 127.816406 74.792969 128.667969 74.425781 C 129.515625 74.058594 130.429688 73.871094 131.402344 73.871094 C 132.367188 73.871094 133.277344 74.058594 134.132812 74.425781 C 134.984375 74.792969 135.730469 75.292969 136.367188 75.921875 C 137.003906 76.550781 137.503906 77.289062 137.875 78.140625 C 138.242188 78.992188 138.421875 79.898438 138.421875 80.863281 C 138.421875 81.824219 138.242188 82.734375 137.875 83.582031 C 137.503906 84.433594 137.003906 85.171875 136.367188 85.800781 C 135.730469 86.429688 134.984375 86.925781 134.132812 87.289062 C 133.277344 87.652344 132.367188 87.832031 131.402344 87.832031"/><path fill="#FFF" d="M 147.859375 87.410156 L 143.285156 80.371094 L 143.285156 87.410156 L 139.769531 87.410156 L 139.769531 74.230469 L 143.269531 74.230469 L 147.859375 81.335938 L 147.859375 74.230469 L 151.394531 74.230469 L 151.394531 87.410156 L 147.859375 87.410156"/><path fill="#FFF" d="M 158.703125 87.832031 C 157.820312 87.832031 156.945312 87.730469 156.078125 87.519531 C 155.210938 87.3125 154.382812 87.023438 153.589844 86.648438 C 153.5625 86.648438 153.507812 86.628906 153.417969 86.582031 C 153.324219 86.527344 153.28125 86.488281 153.28125 86.464844 L 153.351562 86.328125 C 153.394531 86.25 153.449219 86.152344 153.519531 86.03125 C 153.589844 85.914062 153.667969 85.777344 153.757812 85.628906 C 153.847656 85.472656 153.9375 85.320312 154.027344 85.160156 C 154.222656 84.847656 154.402344 84.546875 154.574219 84.261719 C 154.742188 83.980469 154.863281 83.773438 154.929688 83.648438 C 155.078125 83.707031 155.21875 83.773438 155.355469 83.855469 C 155.964844 84.160156 156.578125 84.394531 157.199219 84.558594 C 157.816406 84.726562 158.472656 84.808594 159.164062 84.808594 C 159.355469 84.808594 159.5625 84.800781 159.785156 84.78125 C 160 84.765625 160.207031 84.722656 160.386719 84.652344 C 160.566406 84.585938 160.71875 84.476562 160.835938 84.339844 C 160.953125 84.195312 161.015625 83.996094 161.015625 83.730469 C 161.015625 83.605469 160.984375 83.496094 160.910156 83.398438 C 160.84375 83.304688 160.757812 83.222656 160.660156 83.148438 C 160.558594 83.070312 160.449219 83.007812 160.335938 82.949219 C 160.222656 82.894531 160.113281 82.847656 160.011719 82.816406 C 159.773438 82.722656 159.53125 82.652344 159.28125 82.613281 C 159.03125 82.566406 158.78125 82.511719 158.535156 82.457031 C 158.207031 82.375 157.882812 82.304688 157.566406 82.238281 C 157.246094 82.164062 156.945312 82.085938 156.648438 81.996094 C 156.339844 81.90625 156.046875 81.808594 155.769531 81.699219 C 155.496094 81.589844 155.238281 81.460938 155 81.316406 C 154.511719 81.019531 154.125 80.625 153.832031 80.128906 C 153.546875 79.636719 153.398438 78.980469 153.398438 78.164062 C 153.398438 77.882812 153.433594 77.597656 153.492188 77.308594 C 153.558594 77.015625 153.648438 76.738281 153.773438 76.480469 C 154.023438 75.957031 154.34375 75.527344 154.742188 75.1875 C 155.136719 74.84375 155.582031 74.578125 156.0625 74.382812 C 156.539062 74.191406 157.050781 74.054688 157.582031 73.976562 C 158.113281 73.894531 158.644531 73.855469 159.179688 73.855469 C 160.050781 73.855469 160.910156 73.960938 161.761719 74.171875 C 162.613281 74.382812 163.425781 74.730469 164.195312 75.207031 C 163.910156 75.6875 163.632812 76.152344 163.371094 76.613281 C 163.101562 77.078125 162.835938 77.546875 162.558594 78.019531 C 161.902344 77.703125 161.269531 77.441406 160.648438 77.238281 C 160.035156 77.035156 159.367188 76.9375 158.652344 76.9375 C 158.480469 76.9375 158.304688 76.941406 158.117188 76.957031 C 157.933594 76.976562 157.757812 77.019531 157.597656 77.085938 C 157.441406 77.15625 157.3125 77.253906 157.207031 77.386719 C 157.105469 77.515625 157.054688 77.683594 157.054688 77.902344 C 157.054688 78.058594 157.089844 78.195312 157.15625 78.308594 C 157.234375 78.433594 157.378906 78.542969 157.589844 78.640625 C 157.800781 78.734375 158.058594 78.824219 158.363281 78.902344 C 158.671875 78.980469 159.003906 79.058594 159.367188 79.132812 C 159.730469 79.207031 160.109375 79.296875 160.503906 79.394531 C 160.890625 79.5 161.28125 79.613281 161.671875 79.746094 C 162.0625 79.875 162.429688 80.03125 162.773438 80.21875 C 163.121094 80.40625 163.425781 80.625 163.703125 80.878906 C 163.972656 81.136719 164.1875 81.4375 164.347656 81.789062 C 164.472656 82.050781 164.554688 82.328125 164.601562 82.628906 C 164.648438 82.929688 164.667969 83.226562 164.667969 83.523438 C 164.667969 84.382812 164.496094 85.089844 164.144531 85.644531 C 163.792969 86.199219 163.335938 86.636719 162.765625 86.960938 C 162.199219 87.28125 161.558594 87.507812 160.84375 87.636719 C 160.128906 87.769531 159.417969 87.832031 158.703125 87.832031"/><path fill="#FFF" d="M 176.738281 77.496094 L 173.121094 77.496094 L 173.121094 87.421875 L 169.535156 87.421875 L 169.535156 77.496094 L 165.910156 77.496094 L 165.671875 77.257812 L 165.671875 74.230469 L 176.976562 74.230469 L 176.976562 77.257812 L 176.738281 77.496094"/><path fill="#FFF" d="M 183.605469 77.171875 L 181.546875 77.171875 L 181.546875 80.011719 L 183.605469 80.011719 C 183.8125 80.011719 184.003906 79.976562 184.183594 79.902344 C 184.363281 79.828125 184.523438 79.726562 184.660156 79.597656 C 184.796875 79.464844 184.902344 79.316406 184.980469 79.148438 C 185.0625 78.980469 185.101562 78.796875 185.101562 78.59375 C 185.101562 78.386719 185.0625 78.203125 184.980469 78.035156 C 184.902344 77.863281 184.796875 77.71875 184.660156 77.585938 C 184.523438 77.457031 184.363281 77.355469 184.183594 77.28125 C 184.003906 77.207031 183.8125 77.171875 183.605469 77.171875 Z M 186.171875 87.421875 L 183.878906 83.34375 L 181.652344 83.34375 L 181.667969 87.421875 L 178.03125 87.421875 L 178.03125 74.230469 L 184.644531 74.230469 C 184.960938 74.230469 185.28125 74.289062 185.613281 74.410156 C 185.941406 74.53125 186.257812 74.6875 186.5625 74.882812 C 186.871094 75.082031 187.152344 75.308594 187.410156 75.558594 C 187.671875 75.808594 187.898438 76.0625 188.074219 76.320312 C 188.304688 76.648438 188.476562 77.03125 188.59375 77.472656 C 188.714844 77.90625 188.773438 78.320312 188.773438 78.71875 C 188.773438 79.378906 188.621094 79.988281 188.316406 80.554688 C 188.007812 81.121094 187.582031 81.597656 187.039062 81.984375 L 190.136719 87.421875 L 186.171875 87.421875"/><path fill="#FFF" d="M 201.859375 82.597656 C 201.859375 83.195312 201.761719 83.765625 201.566406 84.296875 C 201.363281 84.828125 201.085938 85.308594 200.730469 85.742188 C 200.371094 86.171875 199.953125 86.546875 199.464844 86.855469 C 198.976562 87.167969 198.449219 87.410156 197.882812 87.578125 C 197.636719 87.65625 197.378906 87.71875 197.117188 87.765625 C 196.859375 87.808594 196.597656 87.832031 196.335938 87.832031 C 196.078125 87.832031 195.820312 87.808594 195.5625 87.765625 C 195.308594 87.71875 195.054688 87.65625 194.804688 87.578125 C 194.242188 87.410156 193.714844 87.167969 193.226562 86.855469 C 192.738281 86.546875 192.316406 86.171875 191.960938 85.742188 C 191.601562 85.308594 191.324219 84.828125 191.125 84.296875 C 190.929688 83.765625 190.832031 83.195312 190.832031 82.597656 L 190.832031 74.230469 L 194.5 74.230469 L 194.5 82.375 C 194.5 82.625 194.550781 82.855469 194.65625 83.066406 C 194.757812 83.273438 194.890625 83.453125 195.0625 83.605469 C 195.234375 83.761719 195.425781 83.878906 195.648438 83.964844 C 195.871094 84.050781 196.097656 84.09375 196.335938 84.09375 C 196.585938 84.09375 196.820312 84.050781 197.042969 83.964844 C 197.261719 83.878906 197.457031 83.761719 197.628906 83.605469 C 197.800781 83.453125 197.9375 83.273438 198.035156 83.066406 C 198.140625 82.855469 198.1875 82.625 198.1875 82.375 L 198.1875 74.230469 L 201.859375 74.230469 L 201.859375 82.597656"/><path fill="#FFF" d="M 210.074219 87.832031 C 209.097656 87.832031 208.1875 87.648438 207.34375 87.28125 C 206.5 86.914062 205.761719 86.410156 205.132812 85.765625 C 204.503906 85.128906 204.007812 84.382812 203.644531 83.539062 C 203.285156 82.695312 203.101562 81.796875 203.101562 80.84375 C 203.101562 79.894531 203.285156 78.996094 203.644531 78.148438 C 204.007812 77.308594 204.503906 76.5625 205.132812 75.921875 C 205.761719 75.28125 206.5 74.777344 207.34375 74.410156 C 208.1875 74.039062 209.097656 73.855469 210.074219 73.855469 C 210.957031 73.855469 211.808594 74.019531 212.621094 74.339844 C 213.4375 74.664062 214.191406 75.128906 214.882812 75.742188 L 212.164062 78.125 C 211.503906 77.660156 210.816406 77.429688 210.089844 77.429688 C 209.613281 77.429688 209.171875 77.519531 208.761719 77.699219 C 208.355469 77.882812 208.003906 78.132812 207.710938 78.449219 C 207.414062 78.761719 207.183594 79.132812 207.011719 79.546875 C 206.84375 79.960938 206.757812 80.390625 206.757812 80.84375 C 206.757812 81.308594 206.84375 81.746094 207.011719 82.160156 C 207.183594 82.574219 207.414062 82.941406 207.710938 83.25 C 208.003906 83.566406 208.351562 83.8125 208.753906 84 C 209.15625 84.1875 209.59375 84.277344 210.074219 84.277344 C 210.613281 84.277344 211.121094 84.152344 211.59375 83.90625 C 212.0625 83.65625 212.472656 83.304688 212.828125 82.851562 L 215.632812 85.128906 C 214.925781 85.992188 214.097656 86.65625 213.136719 87.128906 C 212.179688 87.597656 211.160156 87.832031 210.074219 87.832031"/><path fill="#FFF" d="M 227.121094 77.496094 L 223.5 77.496094 L 223.5 87.421875 L 219.914062 87.421875 L 219.914062 77.496094 L 216.292969 77.496094 L 216.058594 77.257812 L 216.058594 74.230469 L 227.359375 74.230469 L 227.359375 77.257812 L 227.121094 77.496094"/><path fill="#FFF" d="M 228.921875 87.421875 L 228.921875 74.230469 L 232.476562 74.230469 L 232.476562 87.421875 L 228.921875 87.421875"/><path fill="#FFF" d="M 241.617188 77.238281 C 241.121094 77.238281 240.660156 77.339844 240.234375 77.539062 C 239.808594 77.734375 239.445312 78 239.136719 78.328125 C 238.832031 78.65625 238.59375 79.039062 238.414062 79.476562 C 238.238281 79.914062 238.152344 80.375 238.152344 80.863281 C 238.152344 81.335938 238.238281 81.796875 238.414062 82.238281 C 238.59375 82.683594 238.832031 83.066406 239.136719 83.398438 C 239.445312 83.726562 239.808594 83.988281 240.234375 84.1875 C 240.660156 84.382812 241.121094 84.480469 241.617188 84.480469 C 242.117188 84.480469 242.582031 84.382812 243.007812 84.1875 C 243.429688 83.988281 243.796875 83.726562 244.101562 83.398438 C 244.410156 83.066406 244.648438 82.683594 244.824219 82.238281 C 244.996094 81.796875 245.085938 81.335938 245.085938 80.863281 C 245.085938 80.375 244.996094 79.914062 244.824219 79.476562 C 244.648438 79.039062 244.410156 78.65625 244.101562 78.328125 C 243.796875 78 243.429688 77.734375 243.007812 77.539062 C 242.582031 77.339844 242.117188 77.238281 241.617188 77.238281 Z M 241.617188 87.832031 C 240.644531 87.832031 239.734375 87.652344 238.882812 87.289062 C 238.03125 86.925781 237.289062 86.429688 236.65625 85.800781 C 236.023438 85.171875 235.519531 84.433594 235.152344 83.582031 C 234.785156 82.734375 234.597656 81.824219 234.597656 80.863281 C 234.597656 79.898438 234.785156 78.992188 235.152344 78.140625 C 235.519531 77.289062 236.023438 76.550781 236.65625 75.921875 C 237.289062 75.292969 238.03125 74.792969 238.882812 74.425781 C 239.734375 74.058594 240.644531 73.871094 241.617188 73.871094 C 242.582031 73.871094 243.492188 74.058594 244.347656 74.425781 C 245.203125 74.792969 245.945312 75.292969 246.582031 75.921875 C 247.21875 76.550781 247.71875 77.289062 248.089844 78.140625 C 248.457031 78.992188 248.640625 79.898438 248.640625 80.863281 C 248.640625 81.824219 248.457031 82.734375 248.089844 83.582031 C 247.71875 84.433594 247.21875 85.171875 246.582031 85.800781 C 245.945312 86.429688 245.203125 86.925781 244.347656 87.289062 C 243.492188 87.652344 242.582031 87.832031 241.617188 87.832031"/><path fill="#FFF" d="M 258.074219 87.410156 L 253.5 80.371094 L 253.5 87.410156 L 249.984375 87.410156 L 249.984375 74.230469 L 253.484375 74.230469 L 258.074219 81.335938 L 258.074219 74.230469 L 261.609375 74.230469 L 261.609375 87.410156 L 258.074219 87.410156"/></svg>